<svg width="14" height="14" xmlns="http://www.w3.org/2000/svg"><path d="M13.847 6.19C12.927 4.912 10.219 1.54 7 1.54c-3.219 0-5.927 3.372-6.847 4.65a.845.845 0 0 0 0 .97C1.073 8.387 3.781 11.76 7 11.76c3.219 0 5.927-3.372 6.847-4.65a.766.766 0 0 0 0-.92M7 8.694A2.05 2.05 0 0 1 4.956 6.65 2.05 2.05 0 0 1 7 4.606a2.05 2.05 0 0 1 2.044 2.043A2.05 2.05 0 0 1 7 8.693m0-5.11A3.075 3.075 0 0 0 3.934 6.65 3.074 3.074 0 0 0 7 9.715a3.074 3.074 0 0 0 3.066-3.066A3.075 3.075 0 0 0 7 3.584" fill="#97A2AB" fill-rule="evenodd"/></svg>